<?xml version="1.0" encoding="UTF-8" standalone="no"?>
<!-- Generator: Adobe Illustrator 16.0.2, SVG Export Plug-In . SVG Version: 6.00 Build 0)  -->

<svg
   id="Ebene_1"
   width="350"
   height="350"
   enable-background="new -204.866 -205.348 471.661 473.088"
   version="1.1"
   viewBox="-204.866 -205.348 350 350"
   xml:space="preserve"
   sodipodi:docname="CHE Jura Flag.svg"
   inkscape:version="1.4.2 (f4327f4, 2025-05-13)"
   xmlns:inkscape="http://www.inkscape.org/namespaces/inkscape"
   xmlns:sodipodi="http://sodipodi.sourceforge.net/DTD/sodipodi-0.dtd"
   xmlns="http://www.w3.org/2000/svg"
   xmlns:svg="http://www.w3.org/2000/svg"
   xmlns:rdf="http://www.w3.org/1999/02/22-rdf-syntax-ns#"
   xmlns:cc="http://creativecommons.org/ns#"
   xmlns:dc="http://purl.org/dc/elements/1.1/"><defs
   id="defs2"><rect
     id="SVGID_1_"
     x="-175.931"
     y="-213.741"
     width="406.31601"
     height="492.57401" /><rect
     id="SVGID_3_"
     x="-175.931"
     y="-213.741"
     width="406.31601"
     height="492.57401" /></defs><sodipodi:namedview
   id="namedview2"
   pagecolor="#ffffff"
   bordercolor="#000000"
   borderopacity="0.25"
   inkscape:showpageshadow="2"
   inkscape:pageopacity="0.0"
   inkscape:pagecheckerboard="0"
   inkscape:deskcolor="#d1d1d1"
   inkscape:zoom="1.1642857"
   inkscape:cx="175.64417"
   inkscape:cy="158.46626"
   inkscape:window-width="1920"
   inkscape:window-height="1017"
   inkscape:window-x="-8"
   inkscape:window-y="-8"
   inkscape:window-maximized="1"
   inkscape:current-layer="g3" /><metadata
   id="metadata59"><rdf:RDF><cc:Work
       rdf:about=""><dc:format>image/svg+xml</dc:format><dc:type
         rdf:resource="http://purl.org/dc/dcmitype/StillImage" /></cc:Work></rdf:RDF></metadata>


























<g
   style="overflow:visible"
   id="g3"
   transform="matrix(17.249027,0,0,17.237983,-1848.3878,-632.71207)"><polygon
     fill="#ffffff"
     points="141.914,45.026 122.226,45.035 122.226,25.341 141.915,25.333 "
     id="polygon6"
     transform="matrix(1.0305754,0,0,1.0305553,-30.681108,-1.3150577)" /><rect
     x="105.39967"
     y="30.605658"
     fill="#e53328"
     width="10.173269"
     height="2.8980687"
     id="rect7"
     style="stroke-width:1.04044978;stroke:none;stroke-dasharray:none;fill:#f00000;fill-opacity:1" /><rect
     x="105.39967"
     y="36.397675"
     fill="#e53328"
     width="10.173269"
     height="2.9032216"
     id="rect8"
     style="stroke-width:1.04044978;stroke:none;stroke-dasharray:none;fill:#f00000;fill-opacity:1" /><rect
     x="105.39967"
     y="42.198963"
     fill="#e53328"
     width="10.173269"
     height="2.897038"
     id="rect9-7"
     style="stroke-width:1.04044978;stroke:none;stroke-dasharray:none;fill:#f00000;fill-opacity:1" /><rect
     x="105.39967"
     y="24.792"
     fill="#e53328"
     width="10.173269"
     height="2.8939462"
     id="rect10"
     style="stroke-width:1.04044978;stroke:none;stroke-dasharray:none;fill:#f00000;fill-opacity:1" /><path
     id="path3804"
     d="M 29.11914,-205.3757 V 264.2139"
     stroke-width="3.51584"
     style="overflow:visible;stroke:#000000;stroke-opacity:1"
     transform="matrix(0.0431538,0,0,0.04323775,104.21893,33.671983)" /><g
     id="g11"
     transform="matrix(0.04438986,0,0,0.04767263,103.26369,34.696081)"><path
       fill="#e53328"
       d="m -28.589218,-119.79267 c -4.990701,-47.02953 -28.226956,-66.27771 -65.437175,-66.27771 -37.326537,0.044 -56.407517,26.0531 -56.407517,51.52293 0,15.81332 9.28518,37.999525 33.26406,37.999525 23.979109,-0.0209 32.219602,-14.668365 32.219602,-26.333945 0,-11.49277 -11.072469,-20.22033 -20.984502,-20.22033 -9.8886,0 -16.365,4.12616 -16.365,4.12616 2.48375,-16.26699 15.83118,-19.31299 24.118082,-19.31299 12.326181,0 28.830515,7.66902 28.830515,37.00576 0,9.18124 -4.317586,44.069943 -10.747588,87.664603 h 62.675026 c -5.385551,-39.425294 -9.749627,-72.326533 -11.165503,-86.174003 z"
       id="path10-7"
       style="overflow:visible;fill:#f00000;fill-opacity:1;stroke:#000000;stroke-width:2.23044;stroke-dasharray:none;stroke-opacity:1"
       sodipodi:nodetypes="ccscsscssccc" /><path
       fill="#e53328"
       d="m -115.33593,199.60633 41.435191,-75.95584 25.278666,72.30494 23.909506,-72.7802 42.595637,76.60391 c 0,0 -15.575754,-92.69808 -27.1590824,-176.47415 l -78.9008316,0.02097 c -12.674176,85.39628 -27.159086,176.27971 -27.159086,176.27971 z"
       id="path11-4"
       style="overflow:visible;fill:#f00000;fill-opacity:1;stroke:#000000;stroke-width:2.23044;stroke-dasharray:none;stroke-opacity:1"
       sodipodi:nodetypes="ccccccccc" /><path
       fill="#e53328"
       d="M 11.453068,-9.8122613 V 0.88118036 H -108.5577 l -0.0226,-10.58542266 z"
       id="path12-4"
       style="overflow:visible;fill:#f00000;fill-opacity:1;stroke:#000000;stroke-width:2.23044;stroke-dasharray:none;stroke-opacity:1" /><path
       fill="#e53328"
       d="M -1.2907105,6.9731894 V 17.450613 l -94.8016065,0.04402 V 6.9308044 Z"
       id="path13-4-0"
       style="overflow:visible;fill:#f00000;fill-opacity:1;stroke:#000000;stroke-width:2.23044;stroke-dasharray:none;stroke-opacity:1" /><path
       fill="#e53328"
       d="m -1.2907105,-27.072991 v 10.455813 l -94.8016065,0.04402 v -10.520607 h 94.8016065 z"
       id="path14-9"
       style="overflow:visible;fill:#f00000;fill-opacity:1;stroke:#000000;stroke-width:2.23044;stroke-dasharray:none;stroke-opacity:1" /></g></g></svg>
